# xmcd CD database file
#
# Track frame offsets:
#	150
#	19587
#	39090
#	51560
#	73430
#	134550
#	154745
#	172737
#	203894
#	226054
#	263507
#	281666
#	303085
#
# Disc length: 4338 seconds
#
# Revision: 0
# Processed by: cddbd v1.5.2PL0 Copyright (c) Steve Scherf et al.
# Submitted via: CDex 1.70beta2
#
DISCID=ac10f00d
DTITLE=Various Artist - Super Salsa Clásica
DYEAR=1900
DGENRE=Salsa
TTITLE0=Carcelero - Latin Brothers
TTITLE1=Camaleon - Ruben Blades
TTITLE2=Toma Jabon Pa' Que Laves - Sonora
TTITLE3=Basta - Choco Orta
TTITLE4=Boranda - Sonora Ponceña
TTITLE5=Hasta Aqui Te Fui Fiel - Eddy Santiago
TTITLE6=Las Tumbas - Ismael Rivera
TTITLE7=Gitana - Willie Colon
TTITLE8=Frio en Mi - Alfa 8
TTITLE9=Cuidado Con El Perro - Dra
TTITLE10=Busca El Alfiler - Alfredo Valdez
TTITLE11=Sonero Del Barrio - Oscar Rizzo
TTITLE12=Caina - Ruben Blades
EXTD=
EXTT0=
EXTT1=
EXTT2=
EXTT3=
EXTT4=
EXTT5=
EXTT6=
EXTT7=
EXTT8=
EXTT9=
EXTT10=
EXTT11=
EXTT12=
PLAYORDER=
